<?xml version="1.0" encoding="UTF-8" standalone="no"?>
<!DOCTYPE svg PUBLIC "-//W3C//DTD SVG 20010904//EN"
              "http://www.w3.org/TR/2001/REC-SVG-20010904/DTD/svg10.dtd">

<svg xmlns="http://www.w3.org/2000/svg"
     width="1.66667in" height="0.5in"
     viewBox="0 0 500 150">
  <path id="Selection"
        fill="blue" stroke="black" stroke-width="2"
        d="M 56.00,41.52
           C 56.00,41.52 93.00,41.00 93.00,41.00
             93.00,41.00 164.00,41.00 164.00,41.00
             164.00,41.00 383.00,41.00 383.00,41.00
             383.00,41.00 442.00,41.00 442.00,41.00
             462.32,41.03 476.97,55.68 477.00,76.00
             477.00,76.00 477.00,80.00 477.00,80.00
             476.76,99.25 460.69,112.97 442.00,113.00
             442.00,113.00 124.00,113.00 124.00,113.00
             124.00,113.00 64.00,113.00 64.00,113.00
             47.52,112.97 33.05,102.55 29.52,86.00
             28.83,82.77 28.98,78.37 29.00,75.00
             29.08,58.22 40.05,45.80 56.00,41.52 Z" />
</svg>
